<!DOCTYPE svg PUBLIC "-//W3C//DTD SVG 1.1//EN" "http://www.w3.org/Graphics/SVG/1.1/DTD/svg11.dtd">
<!-- Uploaded to: SVG Repo, www.svgrepo.com, Transformed by: SVG Repo Mixer Tools -->
<svg fill="#ffffff" height="800px" width="800px" version="1.1" id="Layer_1" xmlns="http://www.w3.org/2000/svg" xmlns:xlink="http://www.w3.org/1999/xlink" viewBox="0 0 512 512" xml:space="preserve" stroke="#ffffff">
<g id="SVGRepo_bgCarrier" stroke-width="0"/>
<g id="SVGRepo_tracerCarrier" stroke-linecap="round" stroke-linejoin="round"/>
<g id="SVGRepo_iconCarrier"> <g> <g> <path d="M494.845,101.132c15.419-18.863,14.337-46.8-3.249-64.386L472.171,17.32c-19.506-19.506-49.511-18.462-67.976,0.003 L0,421.517v87.403h87.401l377.411-377.412c10.94,22.968,6.927,51.339-12.061,70.329L239.105,415.483l29.133,29.133L481.886,230.97 C517.117,195.738,521.432,141.122,494.845,101.132z M70.336,467.718H41.201v-29.136L379.916,99.867l29.135,29.136L70.336,467.718z M462.463,75.591L438.184,99.87l-29.135-29.136l24.277-24.277c2.63-2.629,6.941-2.77,9.712,0l19.424,19.422 C465.139,68.557,465.139,72.913,462.463,75.591z"/> </g> </g> </g>
</svg>